<?xml version="1.0" standalone="no"?>
<!DOCTYPE svg PUBLIC "-//W3C//DTD SVG 20010904//EN"
 "http://www.w3.org/TR/2001/REC-SVG-20010904/DTD/svg10.dtd">
<svg version="1.0" xmlns="http://www.w3.org/2000/svg"
 width="5000.000000pt" height="5000.000000pt" viewBox="0 0 5000.000000 5000.000000"
 preserveAspectRatio="xMidYMid meet">

<g transform="translate(0.000000,5000.000000) scale(0.100000,-0.100000)"
fill="#000000" stroke="none">
<path d="M21315 43209 c-2929 -131 -5734 -941 -8274 -2389 -1074 -612 -2096
-1344 -3031 -2169 -503 -445 -1109 -1049 -1555 -1551 -2576 -2897 -4171 -6565
-4529 -10415 -59 -633 -61 -686 -61 -1715 0 -1029 2 -1082 61 -1715 321 -3446
1637 -6766 3768 -9500 504 -646 957 -1155 1568 -1761 564 -558 1017 -958 1623
-1430 2734 -2131 6054 -3448 9500 -3768 612 -57 1035 -76 1715 -76 680 0 1103
19 1715 76 3446 320 6766 1637 9500 3768 646 504 1155 957 1761 1568 558 564
958 1017 1430 1623 2131 2734 3448 6054 3768 9500 44 468 76 1039 76 1353 l0
162 -7960 0 -7960 0 0 -1810 0 -1810 5425 0 c2984 0 5425 -4 5425 -8 0 -5 -24
-89 -54 -188 -417 -1380 -1095 -2756 -1950 -3956 -699 -979 -1567 -1906 -2492
-2659 -1423 -1159 -3029 -2009 -4764 -2523 -358 -106 -466 -136 -725 -196 -71
-17 -157 -37 -190 -45 -87 -21 -325 -69 -510 -104 -1634 -303 -3356 -303
-4990 0 -185 35 -423 83 -510 104 -33 8 -118 28 -190 45 -259 60 -367 90 -725
196 -1600 474 -3122 1251 -4447 2271 -749 576 -1478 1270 -2089 1988 -902
1060 -1646 2268 -2192 3560 -460 1089 -781 2253 -946 3430 -177 1258 -177
2552 0 3810 267 1908 933 3737 1954 5370 508 812 1071 1535 1743 2237 93 97
178 194 189 215 11 21 31 52 44 70 13 17 24 34 24 37 0 2 18 32 40 65 22 33
40 63 40 67 0 4 8 16 17 26 10 11 26 35 38 53 36 62 198 299 233 343 18 23 31
42 27 42 -3 0 15 28 42 62 26 35 53 73 60 85 6 12 36 53 67 92 31 39 55 73 54
75 -2 2 96 133 217 291 121 158 248 324 282 369 34 44 78 99 97 121 19 22 57
67 83 101 26 34 82 101 123 149 41 48 86 102 100 119 14 18 34 41 45 53 11 11
40 44 65 74 25 29 56 65 70 80 14 15 45 51 70 80 25 29 56 64 70 79 14 15 51
56 84 91 208 227 336 359 612 634 272 270 384 378 559 537 22 20 56 51 76 70
57 52 161 145 189 168 14 12 48 41 75 65 168 145 339 289 391 330 21 17 68 55
105 85 37 30 107 86 155 125 49 38 97 77 106 86 10 10 26 20 38 24 11 3 20 10
20 13 0 4 25 25 56 47 31 22 61 45 67 51 10 8 55 42 182 136 5 5 30 24 53 43
24 19 48 35 52 35 4 0 28 16 52 35 61 49 59 48 101 74 20 12 37 26 37 31 0 5
9 12 20 15 11 3 26 12 32 18 12 11 274 190 336 229 15 9 32 20 37 25 29 24
350 232 445 289 36 21 67 41 70 44 12 12 129 80 138 80 6 0 12 4 14 8 5 12
305 191 403 240 17 9 32 19 35 23 3 4 17 13 30 19 14 6 48 24 75 40 28 16 64
36 80 44 17 8 62 33 100 55 39 22 102 56 140 76 272 142 459 239 515 266 333
160 482 229 595 279 28 11 68 30 90 40 22 10 56 25 75 33 19 9 65 30 103 46
37 17 70 31 73 31 3 0 26 9 52 21 26 11 56 24 67 28 11 5 41 18 66 30 25 11
54 21 63 21 9 0 16 5 16 10 0 6 8 10 18 10 9 0 30 7 46 15 15 8 33 15 38 15
10 0 91 34 120 50 10 6 23 10 29 10 6 0 25 6 42 14 32 13 77 31 160 62 23 9
50 20 59 25 10 5 23 9 30 9 7 1 31 9 53 20 22 11 48 19 57 20 9 0 20 5 23 10
3 6 17 10 30 10 13 0 26 4 30 9 3 5 20 13 37 17 18 3 39 10 48 14 8 4 40 15
70 25 30 9 64 20 75 25 11 5 45 16 75 26 30 9 64 20 75 25 11 4 45 15 75 25
30 9 64 20 75 25 25 10 335 106 390 120 22 6 49 15 60 19 11 4 40 13 65 20 87
24 105 30 155 44 113 33 510 137 595 156 30 7 63 16 72 21 10 5 33 9 51 9 19
0 37 3 41 8 8 7 98 28 174 38 23 4 45 11 48 15 3 5 17 9 32 9 15 0 49 7 76 15
27 8 64 15 82 15 18 0 35 4 38 9 3 5 34 12 68 16 35 3 72 10 83 15 11 5 49 14
85 19 61 9 91 15 223 42 28 6 106 18 172 27 l120 16 -85 13 c-572 86 -1291
154 -1940 183 -260 11 -1270 11 -1535 -1z"/>
<path d="M27557 38733 c-1 -1 -85 -5 -187 -8 -194 -7 -236 -9 -390 -19 -258
-17 -426 -32 -554 -50 -59 -9 -112 -14 -116 -11 -11 7 -460 -53 -485 -65 -11
-5 -83 -16 -160 -25 -77 -9 -150 -20 -162 -25 -13 -5 -65 -15 -115 -21 -51 -6
-97 -15 -103 -19 -5 -4 -37 -11 -69 -15 -33 -4 -66 -10 -75 -15 -9 -4 -45 -13
-81 -19 -36 -7 -85 -15 -110 -20 -50 -8 -43 -14 40 -31 30 -6 82 -18 115 -25
33 -8 119 -28 190 -45 259 -60 367 -90 725 -196 1600 -474 3122 -1251 4447
-2271 485 -373 884 -724 1338 -1178 939 -939 1657 -1896 2340 -3120 144 -258
423 -827 546 -1115 l27 -65 2411 -3 c1326 -1 2411 0 2411 3 0 2 -51 159 -114
347 -374 1124 -838 2173 -1414 3198 -230 409 -513 870 -566 922 -29 29 -222
211 -311 293 -85 79 -204 185 -235 211 -19 15 -56 46 -81 69 -25 22 -67 58
-93 80 -27 22 -60 51 -74 65 -15 14 -54 45 -87 70 -59 44 -91 69 -170 136 -70
59 -339 266 -355 272 -8 3 -17 8 -20 12 -3 3 -25 21 -50 38 -25 18 -74 54
-110 82 -35 27 -67 50 -71 50 -4 0 -29 17 -56 39 -27 21 -63 46 -79 55 -29 17
-70 44 -135 92 -20 14 -45 31 -56 37 -11 7 -66 42 -121 80 -56 37 -106 67
-110 67 -5 0 -17 9 -27 20 -10 11 -22 20 -27 20 -5 0 -35 17 -66 38 -32 21
-64 41 -72 45 -8 4 -27 15 -42 25 -22 14 -152 92 -229 137 -69 40 -144 82
-199 113 -36 19 -72 40 -80 47 -8 7 -26 16 -40 20 -14 4 -30 11 -36 16 -21 17
-354 191 -464 244 -52 24 -64 30 -107 55 -24 13 -98 42 -98 38 0 -2 -14 7 -32
20 -17 12 -35 22 -39 22 -4 0 -27 9 -51 20 -24 11 -64 29 -90 41 -27 12 -75
34 -108 49 -33 15 -105 47 -160 70 -55 23 -111 46 -125 52 -123 53 -174 73
-177 70 -2 -1 -20 7 -40 18 -21 11 -45 20 -53 20 -9 0 -24 6 -35 13 -11 7 -40
19 -65 27 -25 7 -49 17 -55 20 -9 7 -116 48 -140 54 -51 13 -104 32 -121 43
-12 8 -30 15 -40 18 -11 2 -46 13 -79 25 -33 11 -69 22 -80 25 -11 2 -65 20
-120 40 -55 19 -109 38 -120 40 -11 3 -47 13 -80 23 -33 11 -87 27 -120 37
-33 9 -85 25 -115 35 -30 9 -73 22 -95 28 -126 35 -192 53 -210 56 -11 3 -92
23 -180 46 -88 22 -180 45 -205 51 -25 5 -63 14 -85 20 -22 5 -49 12 -60 14
-20 4 -95 19 -175 37 -25 5 -54 11 -65 13 -11 2 -49 10 -85 18 -36 8 -68 13
-72 10 -4 -2 -17 1 -28 7 -11 6 -35 13 -53 15 -17 2 -43 6 -57 9 -14 2 -70 12
-125 21 -55 8 -111 18 -125 20 -14 2 -38 6 -55 9 -16 3 -75 12 -130 21 -55 9
-116 18 -135 20 -19 2 -51 6 -70 9 -101 14 -449 54 -535 61 -22 1 -74 6 -115
9 -372 34 -687 47 -1158 49 -178 1 -324 1 -325 0z"/>
</g>
</svg>
